<mxfile host="app.diagrams.net" modified="2024-07-11T19:10:22.470Z" agent="Mozilla/5.0 (Windows NT 10.0; Win64; x64) AppleWebKit/537.36 (KHTML, like Gecko) Chrome/126.0.0.0 Safari/537.36" version="24.3.0" etag="V0RojGL-Iy_Lq4ahbI8F" type="github">
  <diagram name="Page-1" id="Of3qA1-hvFi5_gsufQTx">
    <mxGraphModel>
      <root>
        <mxCell id="0" />
        <mxCell id="1" parent="0" />
      </root>
    </mxGraphModel>
  </diagram>
</mxfile>
